<svg width="138" height="107" viewBox="0 0 138 107" fill="none" xmlns="http://www.w3.org/2000/svg">
<rect x="1.5" y="2.5" width="135" height="67" fill="#63C779" stroke="white"/>
<path d="M49 31.5L68.5 2.5H2V69.5H76.5L59 61.5L98 52L49 31.5Z" fill="#F52A2A" stroke="white" stroke-width="4"/>
<path d="M10.784 93.36C8.96 93.36 7.592 92.88 6.68 91.92C5.792 90.936 5.348 89.604 5.348 87.924V78.996H2.828V75.936H5.348V72.012L9.236 70.824V75.936H13.772L13.52 78.996H9.236V87.708C9.236 88.692 9.464 89.388 9.92 89.796C10.376 90.18 11.12 90.372 12.152 90.372C12.8 90.372 13.484 90.252 14.204 90.012V92.784C13.268 93.168 12.128 93.36 10.784 93.36ZM18.6455 72.372V69.132H22.9295V72.372H18.6455ZM18.9695 93V78.924H16.3775L16.7375 75.936H22.8935V93H18.9695ZM27.4711 100.776V75.936H30.8551L31.0711 77.628C31.8391 76.932 32.6791 76.416 33.5911 76.08C34.5031 75.744 35.5831 75.576 36.8311 75.576C39.2791 75.576 41.1871 76.248 42.5551 77.592C43.9231 78.912 44.6071 81.108 44.6071 84.18C44.6071 87.252 43.8991 89.556 42.4831 91.092C41.0671 92.604 39.1351 93.36 36.6871 93.36C34.6231 93.36 32.8591 92.88 31.3951 91.92V100.776H27.4711ZM35.6791 90.408C38.9911 90.408 40.6471 88.32 40.6471 84.144C40.6471 82.128 40.2751 80.7 39.5311 79.86C38.7871 78.996 37.5391 78.564 35.7871 78.564C34.0351 78.564 32.5711 79.164 31.3951 80.364V88.896C31.9471 89.352 32.5591 89.724 33.2311 90.012C33.9271 90.276 34.7431 90.408 35.6791 90.408ZM53.9365 93.36C52.7605 93.36 51.6325 93.276 50.5525 93.108C49.4965 92.94 48.6205 92.736 47.9245 92.496V89.184C48.7405 89.496 49.6405 89.736 50.6245 89.904C51.6085 90.072 52.5445 90.156 53.4325 90.156C54.7765 90.156 55.7365 90.036 56.3125 89.796C56.8885 89.556 57.1765 89.088 57.1765 88.392C57.1765 87.888 56.9965 87.492 56.6365 87.204C56.3005 86.916 55.7845 86.652 55.0885 86.412C54.4165 86.172 53.5525 85.884 52.4965 85.548C51.4885 85.212 50.6125 84.852 49.8685 84.468C49.1245 84.06 48.5485 83.544 48.1405 82.92C47.7325 82.296 47.5285 81.48 47.5285 80.472C47.5285 78.912 48.0925 77.712 49.2205 76.872C50.3485 76.008 52.1605 75.576 54.6565 75.576C55.6405 75.576 56.5765 75.648 57.4645 75.792C58.3525 75.936 59.1085 76.116 59.7325 76.332V79.608C59.0605 79.344 58.3165 79.14 57.5005 78.996C56.7085 78.852 55.9645 78.78 55.2685 78.78C54.0205 78.78 53.0725 78.888 52.4245 79.104C51.8005 79.32 51.4885 79.752 51.4885 80.4C51.4885 81.072 51.8125 81.552 52.4605 81.84C53.1325 82.104 54.2005 82.476 55.6645 82.956C57.0085 83.364 58.0765 83.796 58.8685 84.252C59.6605 84.708 60.2245 85.26 60.5605 85.908C60.9205 86.532 61.1005 87.348 61.1005 88.356C61.1005 90.036 60.4885 91.296 59.2645 92.136C58.0405 92.952 56.2645 93.36 53.9365 93.36ZM64.2277 93V89.94H67.5397V93H64.2277ZM79.7693 93.36C76.7693 93.36 74.5013 92.604 72.9653 91.092C71.4293 89.556 70.6613 87.348 70.6613 84.468C70.6613 81.468 71.5013 79.236 73.1813 77.772C74.8853 76.308 77.1533 75.576 79.9853 75.576C81.1613 75.576 82.1453 75.66 82.9373 75.828C83.7533 75.996 84.5333 76.26 85.2773 76.62V79.536C84.0293 78.912 82.5173 78.6 80.7413 78.6C78.7733 78.6 77.2613 79.044 76.2053 79.932C75.1493 80.796 74.6213 82.308 74.6213 84.468C74.6213 86.508 75.0893 88.008 76.0253 88.968C76.9613 89.904 78.5093 90.372 80.6693 90.372C82.3733 90.372 83.9213 90.048 85.3133 89.4V92.388C84.5213 92.7 83.6693 92.94 82.7573 93.108C81.8693 93.276 80.8733 93.36 79.7693 93.36ZM96.6041 93.36C93.5321 93.36 91.2761 92.592 89.8361 91.056C88.4201 89.52 87.7121 87.324 87.7121 84.468C87.7121 81.612 88.4321 79.416 89.8721 77.88C91.3121 76.344 93.5561 75.576 96.6041 75.576C99.6761 75.576 101.932 76.344 103.372 77.88C104.812 79.416 105.532 81.612 105.532 84.468C105.532 87.324 104.812 89.52 103.372 91.056C101.956 92.592 99.7001 93.36 96.6041 93.36ZM96.6041 90.048C98.4041 90.048 99.6761 89.616 100.42 88.752C101.188 87.864 101.572 86.436 101.572 84.468C101.572 82.5 101.188 81.084 100.42 80.22C99.6761 79.356 98.4041 78.924 96.6041 78.924C94.8281 78.924 93.5561 79.356 92.7881 80.22C92.0441 81.084 91.6721 82.5 91.6721 84.468C91.6721 86.436 92.0441 87.864 92.7881 88.752C93.5561 89.616 94.8281 90.048 96.6041 90.048ZM109.35 93V75.936H112.95L113.13 77.736C113.97 77.064 114.894 76.536 115.902 76.152C116.91 75.768 117.99 75.576 119.142 75.576C120.366 75.576 121.314 75.78 121.986 76.188C122.682 76.572 123.21 77.112 123.57 77.808C124.362 77.16 125.274 76.632 126.306 76.224C127.338 75.792 128.574 75.576 130.014 75.576C131.982 75.576 133.434 76.08 134.37 77.088C135.306 78.096 135.774 79.644 135.774 81.732V93H131.922V82.128C131.922 80.808 131.646 79.884 131.094 79.356C130.542 78.828 129.642 78.564 128.394 78.564C127.578 78.564 126.798 78.708 126.054 78.996C125.334 79.284 124.71 79.716 124.182 80.292C124.254 80.556 124.302 80.832 124.326 81.12C124.35 81.408 124.362 81.72 124.362 82.056V93H120.726V82.164C120.726 80.916 120.51 80.004 120.078 79.428C119.646 78.852 118.83 78.564 117.63 78.564C116.79 78.564 115.986 78.768 115.218 79.176C114.474 79.56 113.802 80.028 113.202 80.58V93H109.35Z" fill="black"/>
<path d="M74 7L60 29.5L74 38M83 7H90M97 7H90M90 7V44.5L80.5 38L97 48M120 7H104L102 36.25M100 65.5L102 36.25M102 36.25H115M133.5 7H125L120 36.25M133.5 65.5H115L120 36.25M120 36.25H133.5" stroke="black" stroke-width="4" stroke-linecap="round" stroke-linejoin="round"/>
<path d="M36.5 6H24.5L27 20.5M27 20.5L29.5 35H36.5M27 20.5H31.75H36.5M41 35L43.25 22.25M56 15.5L50.75 12.5M43.25 22.25L45.5 9.5001L50.75 12.5M43.25 22.25L50.75 12.5M24.5 45L35 42M45.5 39L35 42M35 42L36.5 65.5M50.75 42V53.75M50.75 65.5V53.75M50.75 53.75L63 50V42V53.75M8 9.5001C14.8333 8.5001 27.7 9.6001 24.5 22.0001C21.3 34.4001 12.1667 56.1667 8 65.5V9.5001Z" stroke="black" stroke-width="4" stroke-linecap="round" stroke-linejoin="round"/>
</svg>
